<?xml version="1.0" standalone="no"?>
<!DOCTYPE svg PUBLIC "-//W3C//DTD SVG 20010904//EN"
 "http://www.w3.org/TR/2001/REC-SVG-20010904/DTD/svg10.dtd">
<svg version="1.0" xmlns="http://www.w3.org/2000/svg"
 width="200.000000pt" height="200.000000pt" viewBox="0 0 200.000000 200.000000"
 preserveAspectRatio="xMidYMid meet">

<g transform="translate(0.000000,200.000000) scale(0.100000,-0.100000)"
fill="#000000" stroke="none">
<path d="M0 1000 l0 -1000 1000 0 1000 0 0 1000 0 1000 -1000 0 -1000 0 0
-1000z m1010 705 c0 -14 -4 -25 -10 -25 -5 0 -10 11 -10 25 0 14 5 25 10 25 6
0 10 -11 10 -25z m-84 -67 c16 -84 18 -116 5 -102 -8 9 -31 134 -31 170 0 36
13 3 26 -68z m180 65 c-2 -10 -10 -53 -17 -95 -6 -43 -16 -78 -20 -78 -12 0
-12 1 7 103 9 48 20 87 26 87 5 0 7 -8 4 -17z m-287 -25 c5 -13 6 -27 3 -32
-6 -10 -20 19 -21 42 -1 20 9 14 18 -10z m373 -18 c-5 -13 -11 -19 -14 -14 -3
5 -1 20 4 34 13 31 22 12 10 -20z m-396 -127 c14 -24 21 -43 15 -43 -12 0
-100 153 -94 163 3 5 16 -11 30 -35 13 -23 35 -62 49 -85z m494 112 c0 -4 -34
-63 -77 -133 -8 -13 -17 -21 -20 -18 -7 6 79 156 90 156 4 0 7 -2 7 -5z m-280
-105 c0 -60 -4 -100 -10 -100 -6 0 -10 40 -10 100 0 60 4 100 10 100 6 0 10
-40 10 -100z m-108 -114 c-3 -5 -20 31 -37 80 -18 49 -30 93 -27 98 3 5 20
-31 38 -80 17 -49 29 -93 26 -98z m235 84 c-18 -49 -35 -86 -39 -82 -9 9 54
182 64 176 4 -2 -8 -45 -25 -94z m-467 47 c0 -6 -9 -2 -20 8 -11 10 -20 23
-20 28 0 6 9 2 20 -8 11 -10 20 -23 20 -28z m685 13 c-10 -11 -20 -18 -23 -15
-3 3 3 14 13 25 10 11 20 18 23 15 3 -3 -3 -14 -13 -25z m-714 -97 c38 -31 69
-61 69 -66 0 -11 -42 20 -105 77 -71 64 -47 57 36 -11z m793 39 c-111 -95
-136 -114 -141 -108 -3 3 -4 7 -2 9 2 2 35 29 73 61 37 31 71 54 74 51 3 -3 1
-9 -4 -13z m-683 -44 c66 -78 72 -88 62 -88 -5 0 -35 32 -67 70 -31 39 -53 70
-48 70 5 0 29 -24 53 -52z m503 -18 c-32 -38 -62 -70 -67 -70 -10 0 -4 10 62
88 24 28 48 52 53 52 5 0 -17 -31 -48 -70z m-300 24 c8 -22 7 -34 -3 -34 -5 0
-11 11 -13 25 -6 28 6 34 16 9z m110 -6 c-8 -27 -12 -33 -19 -27 -7 8 7 49 17
49 5 0 6 -10 2 -22z m-204 -57 c-1 -13 -4 -12 -15 3 -8 11 -15 27 -15 35 1 13
4 12 15 -3 8 -11 15 -27 15 -35z m304 13 c-9 -13 -19 -22 -22 -19 -8 8 20 55
29 49 5 -3 1 -16 -7 -30z m-625 12 c13 -7 19 -16 13 -20 -5 -3 -21 3 -33 14
-27 22 -16 26 20 6z m942 -6 c-12 -11 -28 -17 -33 -14 -6 4 0 13 13 20 36 20
47 16 20 -6z m-808 -72 c86 -50 82 -47 75 -53 -6 -7 -157 77 -158 88 0 12 9 8
83 -35z m737 35 c-1 -11 -152 -95 -158 -88 -7 6 -9 5 73 53 72 42 85 48 85 35z
m-635 -33 c10 -11 14 -20 9 -20 -12 1 -44 25 -44 34 0 12 17 6 35 -14z m471
-6 c-30 -21 -44 -16 -17 7 13 11 27 17 30 13 3 -3 -3 -12 -13 -20z m-208 4 c7
-7 12 -20 12 -30 0 -13 8 -18 29 -18 16 0 33 -6 39 -13 6 -7 13 -64 14 -128
l3 -114 22 38 c44 74 117 30 80 -49 -22 -45 -21 -53 5 -81 12 -13 17 -23 11
-23 -6 0 -16 7 -23 15 -17 20 -30 19 -30 -3 0 -10 25 -48 56 -85 30 -37 51
-67 46 -67 -5 0 -31 25 -57 56 -55 63 -60 61 -70 -30 -15 -130 -71 -197 -174
-204 -73 -5 -130 21 -168 80 -22 33 -28 56 -33 121 l-5 81 -43 -52 c-24 -29
-48 -52 -54 -52 -5 0 16 30 46 67 l56 67 0 118 c0 112 1 118 24 133 13 8 31
13 40 9 13 -5 16 2 16 43 0 56 12 73 52 73 20 0 28 5 28 18 0 24 19 42 45 42
12 0 26 -5 33 -12z m-486 -25 c71 -25 104 -43 81 -43 -17 0 -156 51 -167 62
-17 15 11 9 86 -19z m988 20 c0 -5 -41 -22 -90 -40 -50 -17 -90 -28 -90 -23 0
4 37 22 83 39 90 33 97 35 97 24z m-822 -79 c12 -4 22 -11 22 -16 0 -10 -39
-1 -54 13 -12 11 -1 11 32 3z m602 -3 c0 -10 -50 -25 -58 -17 -3 3 6 10 19 15
31 13 39 13 39 2z m-830 -23 c0 -6 -7 -7 -16 -4 -9 3 -22 6 -30 6 -9 0 -13 4
-10 9 7 11 56 2 56 -11z m1078 7 c-11 -9 -58 -14 -58 -6 0 10 39 20 53 13 5
-2 7 -5 5 -7z m-937 -21 c49 -9 89 -21 89 -26 0 -6 -10 -8 -22 -5 -13 4 -56
11 -95 18 -40 7 -73 16 -73 20 0 12 -3 12 101 -7z m839 7 c0 -4 -33 -13 -72
-20 -40 -7 -83 -14 -95 -18 -13 -3 -23 -1 -23 5 0 5 35 17 78 25 95 18 112 19
112 8z m-850 -81 c0 -6 -38 -10 -95 -10 -57 0 -95 4 -95 10 0 6 38 10 95 10
57 0 95 -4 95 -10z m100 0 c0 -5 -13 -10 -30 -10 -16 0 -30 5 -30 10 0 6 14
10 30 10 17 0 30 -4 30 -10z m620 0 c0 -5 -13 -10 -30 -10 -16 0 -30 5 -30 10
0 6 14 10 30 10 17 0 30 -4 30 -10z m230 0 c0 -6 -38 -10 -95 -10 -57 0 -95 4
-95 10 0 6 38 10 95 10 57 0 95 -4 95 -10z m-850 -49 c0 -10 -179 -45 -188
-37 -3 3 -3 8 -1 10 3 3 124 26 182 35 4 0 7 -3 7 -8z m673 -12 c42 -6 77 -16
77 -20 0 -12 -1 -12 -102 7 -49 9 -88 20 -88 26 0 5 8 7 18 4 9 -2 52 -10 95
-17z m-903 -28 c0 -12 -41 -22 -54 -13 -6 3 0 9 14 13 36 10 40 10 40 0z
m1068 -1 c10 0 13 -3 6 -10 -11 -11 -54 -2 -54 12 0 6 7 7 16 4 9 -3 23 -6 32
-6z m-832 -15 c-22 -17 -46 -20 -46 -6 0 10 22 18 50 20 11 0 10 -4 -4 -14z
m570 5 c15 -6 24 -13 22 -16 -8 -8 -58 7 -58 17 0 11 3 11 36 -1z m-656 -29
c0 -11 -170 -74 -178 -66 -3 3 -3 6 -1 8 3 3 165 64 177 66 1 1 2 -3 2 -8z
m810 -28 c73 -26 106 -43 83 -43 -18 0 -157 51 -167 61 -16 15 5 11 84 -18z
m-700 10 c0 -12 -151 -95 -158 -87 -4 4 -2 8 3 11 6 2 39 21 75 42 68 41 80
46 80 34z m582 -35 c86 -49 83 -47 76 -54 -7 -7 -158 78 -158 89 0 11 4 10 82
-35z m-561 -19 c-13 -11 -27 -17 -30 -13 -7 7 28 34 43 34 6 -1 0 -10 -13 -21z
m-62 -46 c0 -8 -109 -100 -137 -117 -32 -19 -4 14 58 67 63 54 81 65 79 50z
m686 -78 c28 -26 45 -45 38 -43 -18 4 -143 110 -143 121 0 11 41 -20 105 -78z
m-856 49 c-36 -20 -48 -16 -19 5 13 11 29 17 34 14 5 -3 -2 -12 -15 -19z m958
-11 c-8 -7 -56 20 -51 28 3 5 16 1 30 -7 13 -9 23 -19 21 -21z m-827 -110 c-1
-15 -30 -46 -37 -40 -3 4 2 16 12 27 19 21 25 24 25 13z m697 -39 c-4 -4 -14
1 -22 12 -22 29 -18 41 7 17 12 -13 19 -26 15 -29z m-957 -269 c0 -10 -10 -15
-30 -15 -25 0 -30 -4 -30 -25 0 -21 5 -25 30 -25 20 0 30 -5 30 -15 0 -10 -10
-15 -30 -15 -29 0 -30 -2 -30 -45 0 -33 -4 -45 -15 -45 -12 0 -15 18 -15 100
l0 100 45 0 c33 0 45 -4 45 -15z m70 -69 c0 -67 3 -85 16 -90 28 -11 34 4 34
90 0 68 3 84 15 84 22 0 22 -162 -1 -184 -20 -21 -53 -20 -76 1 -24 22 -27
183 -3 183 12 0 15 -16 15 -84z m220 69 c0 -8 -9 -15 -20 -15 -18 0 -20 -7
-20 -85 0 -69 -3 -85 -15 -85 -12 0 -15 16 -15 85 0 78 -2 85 -20 85 -11 0
-20 7 -20 15 0 12 13 15 55 15 42 0 55 -3 55 -15z m50 -69 c0 -86 6 -101 34
-90 13 5 16 23 16 90 0 68 3 84 15 84 23 0 21 -156 -2 -182 -20 -22 -51 -23
-75 -1 -24 22 -27 183 -3 183 12 0 15 -16 15 -84z m208 68 c23 -16 29 -53 11
-71 -8 -8 -8 -17 0 -31 17 -31 14 -82 -4 -82 -10 0 -15 10 -15 33 0 34 -15 57
-37 57 -9 0 -13 -15 -13 -45 0 -33 -4 -45 -15 -45 -12 0 -15 18 -15 100 l0
100 33 0 c18 0 43 -7 55 -16z m221 -61 c7 -43 15 -88 18 -100 4 -17 1 -23 -11
-23 -9 0 -16 5 -16 10 0 6 -11 10 -25 10 -14 0 -25 -4 -25 -10 0 -5 -6 -10
-14 -10 -12 0 -11 12 0 78 22 120 23 122 43 122 15 0 20 -13 30 -77z m152 56
c15 -15 19 -27 14 -42 -9 -27 -8 -41 1 -94 5 -36 4 -43 -10 -43 -11 0 -16 9
-16 33 0 37 -15 57 -42 57 -15 0 -18 -8 -18 -45 0 -35 -4 -45 -16 -45 -14 0
-16 8 -10 46 3 26 6 71 6 100 l0 54 35 0 c22 0 43 -8 56 -21z m149 6 c0 -8 -9
-15 -20 -15 -18 0 -20 -7 -20 -85 0 -69 -3 -85 -15 -85 -12 0 -15 16 -15 85 0
78 -2 85 -20 85 -11 0 -20 7 -20 15 0 12 13 15 55 15 42 0 55 -3 55 -15z m146
-26 l12 -34 11 28 c6 16 11 33 11 38 0 5 6 9 14 9 12 0 12 -8 -2 -50 -14 -46
-14 -54 0 -100 14 -43 14 -50 2 -50 -8 0 -17 13 -21 30 -8 42 -20 46 -28 10
-6 -30 -21 -47 -32 -37 -3 3 2 28 11 55 15 44 15 53 1 91 -18 52 -18 54 -3 49
6 -2 17 -20 24 -39z"/>
<path d="M980 1175 c0 -110 -4 -175 -10 -175 -6 0 -10 53 -10 140 0 123 -2
140 -17 148 -39 20 -43 7 -43 -159 0 -99 -4 -159 -10 -159 -6 0 -10 38 -10 94
0 97 -11 125 -45 112 -13 -4 -15 -37 -15 -212 0 -194 1 -209 22 -246 31 -54
77 -81 142 -81 106 0 150 48 172 186 9 50 27 124 41 162 14 39 27 83 30 98 5
26 3 28 -23 25 -24 -3 -31 -12 -52 -62 -13 -32 -34 -100 -47 -150 -30 -111
-63 -151 -124 -151 -73 0 -119 72 -87 134 30 57 91 69 125 25 27 -35 26 -59
-4 -89 -31 -32 -50 -31 -71 1 -16 23 -16 26 -1 41 15 15 16 14 14 -13 -2 -25
2 -29 23 -29 18 0 27 8 34 28 13 37 -2 61 -42 65 -66 7 -97 -74 -47 -123 53
-54 138 -13 151 73 4 26 13 64 20 86 20 56 20 342 0 349 -8 3 -21 0 -30 -6
-13 -10 -16 -38 -19 -152 l-3 -140 -2 162 c-1 89 -5 168 -8 177 -3 9 -17 16
-30 16 l-24 0 0 -175z"/>
<path d="M900 416 c0 -21 5 -26 26 -26 21 0 25 4 22 23 -2 14 -11 23 -25 25
-19 3 -23 -1 -23 -22z"/>
<path d="M1140 399 c0 -9 -3 -31 -6 -48 -5 -24 -3 -31 10 -31 18 0 23 54 6 80
-8 13 -10 13 -10 -1z"/>
<path d="M1260 416 c0 -22 4 -26 31 -26 26 0 30 3 27 23 -2 16 -11 23 -30 25
-24 3 -28 0 -28 -22z"/>
</g>
</svg>
